Coordinates
version=1
nRows=10
nColumns=40
inDegrees=yes

Units are S.I. units (second, meters, Newtons, ...)
Angles are in degrees.

endheader
time	pelvis_tilt	pelvis_list	pelvis_rotation	pelvis_tx	pelvis_ty	pelvis_tz	hip_flexion_r	hip_adduction_r	hip_rotation_r	knee_angle_r	knee_angle_r_beta	ankle_angle_r	subtalar_angle_r	mtp_angle_r	hip_flexion_l	hip_adduction_l	hip_rotation_l	knee_angle_l	knee_angle_l_beta	ankle_angle_l	subtalar_angle_l	mtp_angle_l	lumbar_extension	lumbar_bending	lumbar_rotation	arm_flex_r	arm_add_r	arm_rot_r	elbow_flex_r	pro_sup_r	wrist_flex_r	wrist_dev_r	arm_flex_l	arm_add_l	arm_rot_l	elbow_flex_l	pro_sup_l	wrist_flex_l	wrist_dev_l
     13.15500000	     -1.36672710	     -4.81532651	     -1.87764787	      1.02015478	      0.92867240	      0.49286125	     16.81669837	      2.42625954	     -9.39117382	     20.04098004	     20.04098004	      6.52818727	     -3.51392748	     -4.31382098	      4.53037912	    -10.16472017	     -9.80332022	     35.95140996	     35.95140996	     15.32325983	     -7.48910482	    -11.34767011	     -9.49795133	      5.64668431	     -0.01702889	      2.05981989	    -15.42072050	     -2.94547638	     50.22276485	     45.32681337	      0.00000000	      0.00000000	     12.78870465	    -11.33940799	    -12.11954081	     36.96967643	     46.78885283	      0.00000000	      0.00000000
     13.16800000	     -1.20474795	     -4.92973288	     -1.35070499	      1.02067364	      0.92908685	      0.49497334	     16.12479904	      2.60324315	     -9.87871613	     19.88083870	     19.88083870	      6.90742615	     -3.43200517	     -4.49021441	      6.40185604	    -10.89197198	     -8.64553434	     39.93465807	     39.93465807	     13.56457949	     -8.54511005	    -12.23857239	     -9.51265710	      5.83666991	     -0.19640955	      3.33180832	    -15.57725508	     -3.23924138	     51.29371448	     45.31092075	      0.00000000	      0.00000000	     11.65165656	    -11.11453608	    -12.00803049	     35.83835031	     46.75195822	      0.00000000	      0.00000000
     13.18100000	     -0.89984807	     -5.08632145	     -0.85386314	      1.02101890	      0.92955696	      0.49703848	     15.32301728	      2.82605047	    -10.37283641	     19.77921494	     19.77921494	      7.27021831	     -3.32904344	     -4.65676144	      8.23275500	    -11.60892195	     -7.46559085	     43.98147198	     43.98147198	     11.65285815	     -9.54109040	    -12.69820419	     -9.75382406	      6.07523320	     -0.08072529	      4.67142385	    -15.88813020	     -3.42796706	     52.23467112	     45.29410969	      0.00000000	      0.00000000	     10.75306029	    -10.80021436	    -11.86903780	     34.82034783	     46.71664507	      0.00000000	      0.00000000
     13.19400000	     -0.83839691	     -5.06346464	     -0.33653629	      1.02110092	      0.92964467	      0.49880821	     14.81659437	      2.79822233	    -11.03614375	     19.70744588	     19.70744588	      7.56339153	     -2.94367906	     -5.26522078	     10.35692572	    -11.88502677	     -5.96938977	     47.73780311	     47.73780311	      8.74123734	    -11.58218683	    -14.34329377	     -9.66807112	      6.16337843	      0.18238874	      5.05800036	    -16.54317322	     -3.09673439	     55.22724236	     45.19265653	      0.00000000	      0.00000000	     10.83456128	    -10.47248787	    -11.00043055	     30.98471736	     46.58814628	      0.00000000	      0.00000000
     13.20700000	     -0.67701130	     -5.20551894	      0.12344025	      1.02101245	      0.92978498	      0.50072867	     14.20056497	      3.02604662	    -11.48008767	     19.59402789	     19.59402789	      7.89283459	     -2.87225215	     -5.38042801	     12.47979235	    -12.41884214	     -4.75011758	     51.60173984	     51.60173984	      6.75728717	    -12.43761256	    -13.92536269	     -9.78486615	      6.36956874	      0.31608931	      6.42156353	    -16.82795186	     -3.38545814	     56.12805437	     45.18227446	      0.00000000	      0.00000000	      9.82480132	    -10.16695686	    -10.85306928	     30.18956923	     46.54893749	      0.00000000	      0.00000000
     13.22000000	     -0.58100356	     -5.15570521	      0.57186905	      1.02068555	      0.92981222	      0.50233839	     13.76555662	      2.95313992	    -12.11814965	     19.68813815	     19.68813815	      8.26263279	     -2.40891276	     -5.66061964	     14.76937001	    -12.53106958	     -3.43651855	     55.46526644	     55.46526644	      6.14042562	    -12.81342739	     -9.87169835	     -9.84965665	      6.38289351	      0.58601417	      7.21950638	    -17.34205217	     -3.47655215	     58.63753339	     45.12757406	      0.00000000	      0.00000000	      9.42219928	     -9.96311010	     -9.65490195	     27.93385190	     46.36209519	      0.00000000	      0.00000000
     13.23300000	     -0.51935134	     -5.17900505	      0.97248484	      1.02019593	      0.92985962	      0.50397389	     13.32448038	      3.01392982	    -12.60620594	     19.65656553	     19.65656553	      8.62544624	     -2.07680220	     -5.70659040	     17.01057650	    -12.71014539	     -2.30982997	     58.89586081	     58.89586081	      5.65484995	    -13.06739637	     -5.99321903	     -9.90823301	      6.44626689	      0.82726311	      8.41993136	    -17.65088499	     -3.83580153	     60.03139813	     45.12686264	      0.00000000	      0.00000000	      8.50671637	     -9.77437064	     -8.61082820	     27.05331309	     46.18656745	      0.00000000	      0.00000000
     13.24600000	     -0.46010588	     -5.25100737	      1.34796325	      1.01962853	      0.92998386	      0.50559647	     12.84331131	      3.17112976	    -12.97046398	     19.51107819	     19.51107819	      8.89306348	     -1.94760945	     -5.75522505	     19.03157601	    -12.92137588	     -1.37838550	     61.57193419	     61.57193419	      4.27605812	    -14.01936224	     -5.01452712	     -9.97034499	      6.54937900	      1.01487575	      9.84009010	    -17.88031195	     -4.08659399	     60.90936737	     45.11663730	      0.00000000	      0.00000000	      7.46768643	     -9.49682977	     -8.42291577	     26.46788200	     46.13953792	      0.00000000	      0.00000000
     13.25900000	     -0.38243416	     -5.15947226	      1.66127953	      1.01893196	      0.93026880	      0.50700187	     12.39914364	      3.06425594	    -13.55556913	     19.51530896	     19.51530896	      9.33846622	     -1.22451149	     -5.71732509	     21.05270645	    -12.86989124	     -0.59336774	     64.11363697	     64.11363697	      5.26958662	    -13.98502799	      1.02123251	    -10.10466087	      6.47431266	      1.26683192	     11.10311990	    -18.27496208	     -4.08348919	     62.58643131	     45.09324539	      0.00000000	      0.00000000	      6.43828267	     -9.39056515	     -7.01298660	     25.94136544	     45.90060669	      0.00000000	      0.00000000
     13.27200000	     -0.32762386	     -5.17503169	      1.94572866	      1.01817743	      0.93066304	      0.50849012	     11.85529118	      3.20298769	    -13.77823547	     19.21206578	     19.21206578	      9.53830641	     -1.10286585	     -5.69944347	     22.75854558	    -13.03886630	     -0.12784395	     65.63921552	     65.63921552	      4.50448329	    -14.94464630	      1.51992123	    -10.20622719	      6.48127489	      1.67581878	     12.53097578	    -18.61403387	     -4.37200535	     63.23979220	     45.09108646	      0.00000000	      0.00000000	      5.51758239	     -9.02815060	     -6.86120475	     25.56829195	     45.85982659	      0.00000000	      0.00000000
